<?xml version="1.0" encoding="UTF-8" standalone="no"?>
<!-- Generator: Adobe Illustrator 18.1.1, SVG Export Plug-In . SVG Version: 6.00 Build 0)  -->

<svg
   xmlns:dc="http://purl.org/dc/elements/1.1/"
   xmlns:cc="http://creativecommons.org/ns#"
   xmlns:rdf="http://www.w3.org/1999/02/22-rdf-syntax-ns#"
   xmlns:svg="http://www.w3.org/2000/svg"
   xmlns="http://www.w3.org/2000/svg"
   xmlns:sodipodi="http://sodipodi.sourceforge.net/DTD/sodipodi-0.dtd"
   xmlns:inkscape="http://www.inkscape.org/namespaces/inkscape"
   version="1.1"
   id="Capa_1"
   x="0px"
   y="0px"
   viewBox="0 0 475 475"
   style="enable-background:new 0 0 475 475;"
   xml:space="preserve"
   inkscape:version="0.91 r13725"
   sodipodi:docname="info.svg"><metadata
     id="metadata49"><rdf:RDF><cc:Work
         rdf:about=""><dc:format>image/svg+xml</dc:format><dc:type
           rdf:resource="http://purl.org/dc/dcmitype/StillImage" /></cc:Work></rdf:RDF></metadata><defs
     id="defs47" /><sodipodi:namedview
     pagecolor="#ffffff"
     bordercolor="#666666"
     borderopacity="1"
     objecttolerance="10"
     gridtolerance="10"
     guidetolerance="10"
     inkscape:pageopacity="0"
     inkscape:pageshadow="2"
     inkscape:window-width="640"
     inkscape:window-height="480"
     id="namedview45"
     showgrid="false"
     inkscape:zoom="0.49684211"
     inkscape:cx="237.5"
     inkscape:cy="237.5"
     inkscape:window-x="0"
     inkscape:window-y="0"
     inkscape:window-maximized="0"
     inkscape:current-layer="Capa_1" /><g
     id="g3"
     style="fill:#ffffff"><g
       id="g5"
       style="fill:#ffffff"><g
         id="g7"
         style="fill:#ffffff"><path
           style="fill:#ffffff"
           d="M238,0C107,0,0,107,0,238s107,237,238,237s237-106,237-237S369,0,238,0z M238,432     c-107,0-194-87-194-194S131,44,238,44s194,87,194,194S345,432,238,432z"
           id="path9" /><path
           style="fill:#ffffff"
           d="M270,323l-20,9l26-133c3-14-12-29-28-20l-49,27c-9,5-12,17-7,26s17,12,26,7l12-6l-25,127     c-2,11,7,23,19,23c3,0,6-1,8-2l53-23c10-4,14-15,10-25S280,319,270,323z"
           id="path11" /><path
           style="fill:#ffffff"
           d="M257,143c15,0,27-12,27-27s-12-27-27-27s-27,12-27,27S242,143,257,143z"
           id="path13" /></g></g></g><g
     id="g15" /><g
     id="g17" /><g
     id="g19" /><g
     id="g21" /><g
     id="g23" /><g
     id="g25" /><g
     id="g27" /><g
     id="g29" /><g
     id="g31" /><g
     id="g33" /><g
     id="g35" /><g
     id="g37" /><g
     id="g39" /><g
     id="g41" /><g
     id="g43" /></svg>